# xmcd
#
# Track frame offsets:
#	150
#	17755
#	36955
#	54220
#	68047
#	88970
#	107342
#	124017
#	136662
#	150297
#	169742
#	190215
#	204092
#	219690
#	239252
#	272722
#
# Disc length: 3648 seconds
#
# Revision: 1
# Processed by: cddbd v1.5.2PL0 Copyright (c) Steve Scherf et al.
# Submitted via: audiograbber 1.83.01
#
DISCID=cf0e3e10
DTITLE=LeAnn Rimes - SC8458 Hits of LeAnn Rimes Vol 1
DYEAR=1900
DGENRE=
TTITLE0=One Way Ticket (Because I Can)
TTITLE1=Ten Thousand Angels Cried
TTITLE2=You Light Up My Life
TTITLE3=Blue
TTITLE4=How Do I Live
TTITLE5=Unchained Melody
TTITLE6=The Light in You Eyes
TTITLE7=I Want to Be a Cowboy's Sweetheart
TTITLE8=Clinging to a Saving Hand
TTITLE9=On the Side of Angels
TTITLE10=Commitment
TTITLE11=Hurt Me
TTITLE12=God Bless America
TTITLE13=Looking Through Your Eyes
TTITLE14=I Know Who Holds Tomorrow
TTITLE15=Data Track
EXTD=
EXTT0=
EXTT1=
EXTT2=
EXTT3=
EXTT4=
EXTT5=
EXTT6=
EXTT7=
EXTT8=
EXTT9=
EXTT10=
EXTT11=
EXTT12=
EXTT13=
EXTT14=
EXTT15=
PLAYORDER=
